<?xml version="1.0" encoding="UTF-8"?>
<svg id="Layer_2" data-name="Layer 2" xmlns="http://www.w3.org/2000/svg" viewBox="0 0 740.14 225.37">
  <defs>
    <style>
      .cls-1 {
        fill: #f79f19;
      }
    </style>
  </defs>
  <g id="Capa_1" data-name="Capa 1">
    <g>
      <g>
        <circle cx="112.68" cy="112.68" r="112.68"/>
        <g>
          <path class="cls-1" d="M205.79,106.59c-2.49-36.12-25.22-66.02-56.35-79.38-6.05.58-12.25,1.6-18.57,3.18-.36.09-.7.19-1.06.28.05.03.1.05.14.07-5.37,1.38-12.2,3.6-19.66,7.33-1.07.53-2.14,1.09-3.23,1.69-1.48.81-2.87,1.62-4.18,2.43-.38.23-.76.47-1.12.7-.63.4-1.25.8-1.85,1.2-.3.2-.6.4-.89.6-.49.34-.97.67-1.44,1-.77.55-1.52,1.09-2.23,1.63-1.86,1.4-3.51,2.75-5,4-.94.79-1.81,1.55-2.63,2.26,0,0-.17.16-.49.48-.16.16-.35.36-.58.59-.11.12-.24.24-.37.38-2.79,2.88-9.2,9.87-15.34,19.18-1.05,1.6-2.09,3.26-3.11,4.98-4.71,7.99,2.85,11.79,9.97,11.75,1.02,0,2.03-.09,2.99-.26,1.86-.31,3.55-.85,5.12-1.55.52-.23,1.03-.49,1.53-.76,1.5-.81,2.89-1.77,4.21-2.82.44-.35.87-.71,1.3-1.09.86-.74,1.69-1.52,2.51-2.32.41-.4.82-.8,1.23-1.21s.81-.81,1.22-1.22c.71-.72,1.42-1.43,2.14-2.14.21-.21.42-.41.63-.61.3-.29.6-.58.9-.87,2.04-1.92,4.19-3.71,6.62-5.17.43-.26.87-.51,1.32-.74,3.32-1.74,7.18-2.82,11.97-2.74.38,0,.76.02,1.15.04,1.5.08,3.09.28,4.78.59,2.26.42,4.69,1.07,7.33,1.97,9.68,3.32,18.51,9.26,26.59,16.55,6.61,5.97,12.72,12.84,18.38,19.92,7.55,9.45,14.3,19.27,20.39,27.83,0,0,0,0,0,0,.31.33.59.68.86,1.02.04.06.09.11.13.17.25.34.49.68.71,1.03.04.06.07.12.11.18.22.36.42.72.6,1.09,0,.02.02.03.02.05.03.05.04.1.07.16,2.77-9.96,3.93-20.54,3.18-31.44Z"/>
          <path class="cls-1" d="M145.07,200.55c-.08.03-.16.06-.24.09.08-.03.17-.05.24-.09Z"/>
          <path class="cls-1" d="M198.39,144.9h0c-18.32-21.53-54.02-75-82.09-67.18-12.07,3.37-17.96,21.61-37.24,23.58-1.44.15-17.08,1.57-22.33-6.76-8.6-13.61,16.61-43.72,29.11-53.43,5.9-4.59,12.64-8.43,15.34-9.91,2.69-1.29,11.54-5.49,17.73-7.09,4.82-1.25,7.7-1.83,7.7-1.83,3.21-.65,4.08-.85,4.07-.88,0,0-.02,0-.12-.02-.11-.02-.17-.03-.28-.05-.03,0-.11-.02-.28-.05-.09-.02-.56-.11-1.03-.19-.86-.15-1.6-.27-1.85-.31-.68-.11-1.48-.22-2.39-.34-1.31-.14-2.62-.28-3.92-.42-1.91-.16-3.91-.28-5.98-.32-3.76-.08-7.31.07-10.64.37,0,0,0,0,0,0-.04,0-.08,0-.13.01-.66.06-1.31.13-1.95.2-.11.01-.22.02-.34.04-.75.09-1.48.18-2.2.28-.17.02-.34.05-.5.08-.45.07-.9.13-1.34.2-.06.01-.12.02-.17.03-1.21.2-2.4.42-3.59.66-.11.02-.21.04-.32.06,0,0,0,0,0,0C48.65,30.95,16.33,72.3,19.58,119.43c3.12,45.25,38.01,80.73,81.38,86.18-7.53-5.54-14.62-8.61-21.34-16.51-8.35-9.81-13-24.7,1.08-13.39,13.58,10.91,26.62,26.52,42.9,29.99,7.4-.87,14.5-2.59,21.24-5.06.08-.03.16-.06.24-.09,2.01-.89,0-3.78-.52-4.49-.05-.04-.11-.08-.16-.12-16.46-12.59-58.93-45.77-52.53-53.1,2.38-2.72,8.32,1.17,14.67,6.75h0s43.29,37.59,43.29,37.59c3.85,2.85,6.78,4.9,7.39,5.01,6.16,1.15,18.53-8.9,19.51-14.41,1.05-5.95-13.95-21.16-18.73-26.6-7.31-8.32-31.59-27.54-35.09-33.32-2.26-3.72-.71-7.91,2.35-8.76,7.01-1.95,55.65,50.96,60.15,61.29.21.12.43.2.67.26,5.44-6.91,9.89-14.6,13.21-22.85.06-.14.11-.27.17-.41.17-.82-.44-1.8-1.05-2.52Z"/>
        </g>
      </g>
      <g>
        <g>
          <path d="M651.9,89.04c0-5.08,1.25-10,3.76-14.76,2.51-4.76,6.05-8.39,10.65-10.89,4.59-2.51,9.72-3.76,15.39-3.76,8.75,0,15.92,2.84,21.52,8.52,5.59,5.68,8.39,12.86,8.39,21.54s-2.82,16.01-8.47,21.76c-5.65,5.76-12.75,8.63-21.32,8.63-5.3,0-10.36-1.2-15.17-3.59-4.81-2.4-8.47-5.91-10.98-10.54-2.51-4.63-3.76-10.27-3.76-16.91ZM667.59,89.86c0,5.74,1.36,10.13,4.08,13.18,2.72,3.05,6.08,4.58,10.08,4.58s7.34-1.53,10.05-4.58c2.7-3.05,4.06-7.48,4.06-13.29s-1.35-10.02-4.06-13.07c-2.7-3.05-6.05-4.57-10.05-4.57s-7.35,1.52-10.08,4.57c-2.72,3.05-4.08,7.44-4.08,13.18Z"/>
          <path d="M514.53,69.81c-1.45-3.34-3.65-5.87-6.59-7.6-2.94-1.72-6.54-2.59-10.78-2.59-3.34,0-6.48.76-9.42,2.29-2.94,1.52-5.68,3.83-8.22,6.92-1.74-3.09-3.98-5.39-6.7-6.92-2.72-1.52-5.94-2.29-9.64-2.29-6.97,0-12.98,3.07-18.03,9.21h0s0,0,0,0c-2.3-4.49-6.86-7.63-12.19-7.9h-1.91v45.05h0c0,7.07,5.73,12.8,12.8,12.8h2.51v-28.11c0-5.56.41-9.53,1.23-11.93.82-2.4,2.17-4.23,4.06-5.5,1.89-1.27,4.01-1.91,6.37-1.91,1.96,0,3.51.4,4.66,1.2,1.14.8,1.99,2.02,2.53,3.65.54,1.63.82,5.27.82,10.89v20.25c.67,6.44,6.11,11.45,12.73,11.45h2.58v-27.78c0-5.45.42-9.43,1.25-11.96s2.2-4.44,4.09-5.75c1.89-1.31,3.9-1.96,6.05-1.96,2.94,0,5.12,1.09,6.54,3.27,1.05,1.67,1.58,5.37,1.58,11.11v21.34c.55,6.56,6.04,11.72,12.75,11.72h2.56v-36.98c0-5.52-.53-9.51-1.58-11.98Z"/>
          <path d="M738.88,46.83c-2.3-4.49-6.86-7.63-12.19-7.9h-3.11v67.05h0c0,7.07,5.73,12.8,12.8,12.8h2.5V46.81h0Z"/>
          <path d="M578.88,111.02c-.49-2.41-.74-6.16-.74-11.25l.16-17.87c0-6.64-.68-11.21-2.04-13.7-1.36-2.49-3.71-4.54-7.05-6.15-3.34-1.62-8.42-2.42-15.25-2.42-7.52,0-13.18,1.34-16.99,4.03-3.81,2.69-6.5,6.83-8.06,12.42l6.24,1.13c.2.01.4.03.6.03,3.64,0,6.98-1.24,9.65-3.31.35-.38.72-.71,1.11-.98,1.52-1.07,3.65-1.61,6.37-1.61,4.03,0,6.77.63,8.22,1.88,1.45,1.25,2.18,3.35,2.18,6.29v1.52c-2.76,1.16-7.72,2.41-14.87,3.76-5.3,1.02-9.36,2.21-12.17,3.57-2.81,1.36-5,3.32-6.56,5.88-1.56,2.56-2.34,5.47-2.34,8.74,0,4.94,1.72,9.02,5.15,12.25,3.43,3.23,8.12,4.85,14.08,4.85,3.38,0,6.55-.64,9.53-1.91,2.98-1.27,5.77-3.18,8.39-5.72h0c1.52,2.13,3.21,3.33,4.26,3.96,2.15,1.29,4.15,1.67,5.79,1.97,2.84.52,4.57.17,4.61.39h2.5c-1.34-2.76-2.26-5.35-2.75-7.76ZM563.28,94.05c0,3.67-.2,6.16-.6,7.46-.58,2-1.8,3.69-3.65,5.07-2.51,1.82-5.14,2.72-7.9,2.72-2.47,0-4.5-.78-6.1-2.34-1.6-1.56-2.4-3.41-2.4-5.56s1-3.98,3-5.39c1.31-.87,4.09-1.76,8.33-2.67,4.25-.91,7.35-1.69,9.31-2.34v3.05Z"/>
          <path d="M641.58,98.66c-.85-.13-1.71-.22-2.6-.22-4.47,0-8.53,1.72-11.59,4.52-.52.87-1.09,1.6-1.74,2.18-1.85,1.65-4.23,2.48-7.14,2.48-3.89,0-6.98-1.42-9.29-4.25-2.31-2.83-3.46-7.68-3.46-14.54,0-6.17,1.13-10.57,3.4-13.21,2.27-2.63,5.31-3.95,9.12-3.95,2.87,0,5.2.76,7,2.29.66.56,1.23,1.22,1.71,1.98,2.68,2.09,6.04,3.34,9.69,3.34.15,0,.3-.01.45-.02l6.69-1.21c-1.82-6.21-4.8-10.83-8.96-13.86-4.16-3.03-9.76-4.55-16.8-4.55-8.61,0-15.43,2.66-20.48,7.98-5.05,5.32-7.57,12.75-7.57,22.31s2.51,16.83,7.54,22.17c5.03,5.34,11.77,8.01,20.24,8.01,7.44,0,13.38-1.76,17.81-5.28,4.43-3.52,7.43-8.73,8.99-15.63l-3.02-.51Z"/>
          <path d="M414.84,102.25c-.99-.18-2.01-.29-3.06-.29-4.47,0-8.54,1.72-11.6,4.52h-.01s0-.01,0-.01c-.08.07-.16.15-.24.21-1.63,1.31-3.65,1.96-6.05,1.96-3.52,0-6.46-1.26-8.82-3.78-2.36-2.52-3.59-6.05-3.7-10.59h27.02c1.19-.18,3.07-.64,4.92-1.98,2.66-1.94,3.63-4.52,4.12-5.89,1.14-3.17.89-6.14.46-8.17-1.19-4.03-2.95-7.39-5.3-10.07-4.98-5.68-11.77-8.52-20.37-8.52-7.66,0-14,2.71-19.01,8.14-5.01,5.43-7.52,12.94-7.52,22.52,0,8.03,1.91,14.67,5.72,19.94,4.83,6.57,12.27,9.86,22.33,9.86,6.35,0,11.65-1.46,15.88-4.38,4.23-2.92,7.33-7.18,9.29-12.77l-4.05-.68s0,0,0,0ZM384.84,74.99c2.18-2.43,4.94-3.65,8.28-3.65,3.12,0,5.77,1.15,7.95,3.46,1.28,1.35,2.19,3.08,2.76,5.17.45,2.21-.91,4.36-3.07,4.93h-19.13c-.04-4.18,1.03-7.48,3.21-9.91Z"/>
          <path d="M368.12,39.64v-.71h-63.46v.71c0,7.07,5.73,12.8,12.8,12.8h10.89v53.8c.14,6.95,5.81,12.54,12.79,12.54h3.34V52.44h10.84c7.07,0,12.8-5.73,12.8-12.8Z"/>
        </g>
        <g>
          <path d="M304.67,187.75v-31.88h23.05v3.76h-18.83v9.77h17.64v3.74h-17.64v10.85h19.57v3.76h-23.79Z"/>
          <path d="M334.72,187.75v-20.05h-3.46v-3.04h3.46v-2.46c0-1.55.14-2.7.41-3.46.38-1.01,1.04-1.84,1.99-2.47.95-.63,2.28-.95,3.99-.95,1.1,0,2.32.13,3.65.39l-.59,3.42c-.81-.14-1.58-.22-2.31-.22-1.19,0-2.03.25-2.52.76-.49.51-.74,1.46-.74,2.85v2.13h4.5v3.04h-4.5v20.05h-3.89Z"/>
          <path d="M346.19,160.37v-4.5h3.91v4.5h-3.91ZM346.19,187.75v-23.1h3.91v23.1h-3.91Z"/>
          <path d="M371.13,179.29l3.85.5c-.42,2.65-1.5,4.73-3.23,6.23-1.73,1.5-3.86,2.25-6.38,2.25-3.16,0-5.7-1.03-7.62-3.1-1.92-2.07-2.88-5.03-2.88-8.88,0-2.49.41-4.68,1.24-6.55.83-1.87,2.08-3.27,3.77-4.21,1.69-.94,3.53-1.4,5.51-1.4,2.51,0,4.56.63,6.15,1.9s2.62,3.07,3.07,5.4l-3.81.59c-.36-1.55-1-2.72-1.92-3.5-.92-.78-2.03-1.17-3.34-1.17-1.97,0-3.57.71-4.81,2.12-1.23,1.41-1.85,3.65-1.85,6.71s.59,5.36,1.78,6.76c1.19,1.41,2.74,2.11,4.65,2.11,1.54,0,2.82-.47,3.85-1.41s1.68-2.39,1.96-4.35Z"/>
          <path d="M378.35,160.37v-4.5h3.91v4.5h-3.91ZM378.35,187.75v-23.1h3.91v23.1h-3.91Z"/>
          <path d="M404.04,180.31l4.05.5c-.64,2.36-1.82,4.2-3.54,5.5-1.73,1.3-3.93,1.96-6.61,1.96-3.38,0-6.06-1.04-8.04-3.12-1.98-2.08-2.97-5-2.97-8.75s1-6.9,3-9.05c2-2.15,4.6-3.22,7.79-3.22s5.61,1.05,7.57,3.15c1.96,2.1,2.94,5.06,2.94,8.87,0,.23,0,.58-.02,1.04h-17.23c.15,2.54.86,4.48,2.15,5.83,1.29,1.35,2.9,2.02,4.83,2.02,1.44,0,2.66-.38,3.68-1.13,1.01-.75,1.82-1.96,2.41-3.61ZM391.18,173.99h12.9c-.17-1.94-.67-3.4-1.48-4.37-1.25-1.51-2.86-2.26-4.85-2.26-1.8,0-3.31.6-4.53,1.81-1.23,1.2-1.9,2.81-2.03,4.83Z"/>
          <path d="M413,187.75v-23.1h3.52v3.28c1.7-2.54,4.15-3.81,7.35-3.81,1.39,0,2.67.25,3.84.75,1.17.5,2.04,1.16,2.62,1.97.58.81.99,1.78,1.22,2.89.14.73.22,1.99.22,3.81v14.2h-3.91v-14.05c0-1.59-.15-2.79-.46-3.58-.3-.79-.84-1.42-1.62-1.89-.78-.47-1.69-.71-2.73-.71-1.67,0-3.11.53-4.32,1.59-1.21,1.06-1.82,3.07-1.82,6.02v12.61h-3.91Z"/>
          <path d="M452.84,179.29l3.85.5c-.42,2.65-1.5,4.73-3.23,6.23-1.73,1.5-3.86,2.25-6.38,2.25-3.16,0-5.7-1.03-7.62-3.1-1.92-2.07-2.88-5.03-2.88-8.88,0-2.49.41-4.68,1.24-6.55.83-1.87,2.08-3.27,3.77-4.21,1.69-.94,3.53-1.4,5.51-1.4,2.51,0,4.56.63,6.15,1.9s2.62,3.07,3.07,5.4l-3.81.59c-.36-1.55-1-2.72-1.92-3.5-.92-.78-2.03-1.17-3.34-1.17-1.97,0-3.57.71-4.81,2.12-1.23,1.41-1.85,3.65-1.85,6.71s.59,5.36,1.78,6.76c1.19,1.41,2.74,2.11,4.65,2.11,1.54,0,2.82-.47,3.85-1.41s1.68-2.39,1.96-4.35Z"/>
          <path d="M460.06,160.37v-4.5h3.91v4.5h-3.91ZM460.06,187.75v-23.1h3.91v23.1h-3.91Z"/>
          <path d="M485.01,184.9c-1.45,1.23-2.85,2.1-4.19,2.61-1.34.51-2.78.76-4.32.76-2.54,0-4.49-.62-5.85-1.86-1.36-1.24-2.04-2.82-2.04-4.75,0-1.13.26-2.16.77-3.1.51-.94,1.19-1.69,2.02-2.25.83-.57,1.77-.99,2.82-1.28.77-.2,1.93-.4,3.48-.59,3.16-.38,5.49-.83,6.98-1.35.01-.54.02-.88.02-1.02,0-1.59-.37-2.72-1.11-3.37-1-.88-2.49-1.33-4.46-1.33-1.84,0-3.2.32-4.08.97-.88.64-1.53,1.79-1.95,3.42l-3.83-.52c.35-1.64.92-2.96,1.72-3.97.8-1.01,1.95-1.78,3.46-2.33,1.51-.54,3.25-.82,5.24-.82s3.57.23,4.81.7c1.23.46,2.14,1.05,2.72,1.75s.99,1.59,1.22,2.66c.13.67.2,1.87.2,3.61v5.22c0,3.64.08,5.94.25,6.91.17.96.5,1.89.99,2.77h-4.09c-.41-.81-.67-1.76-.78-2.85ZM484.68,176.16c-1.42.58-3.55,1.07-6.39,1.48-1.61.23-2.75.49-3.41.78-.67.29-1.18.71-1.54,1.27-.36.56-.54,1.18-.54,1.86,0,1.04.4,1.91,1.19,2.61.79.7,1.95,1.04,3.47,1.04s2.85-.33,4.02-.99c1.17-.66,2.04-1.56,2.59-2.71.42-.88.63-2.19.63-3.91v-1.44Z"/>
          <path d="M522.15,184.9c-1.45,1.23-2.85,2.1-4.19,2.61-1.34.51-2.78.76-4.32.76-2.54,0-4.49-.62-5.85-1.86-1.36-1.24-2.04-2.82-2.04-4.75,0-1.13.26-2.16.77-3.1.51-.94,1.19-1.69,2.02-2.25.83-.57,1.77-.99,2.82-1.28.77-.2,1.93-.4,3.48-.59,3.16-.38,5.49-.83,6.98-1.35.01-.54.02-.88.02-1.02,0-1.59-.37-2.72-1.11-3.37-1-.88-2.49-1.33-4.46-1.33-1.84,0-3.2.32-4.08.97-.88.64-1.53,1.79-1.95,3.42l-3.83-.52c.35-1.64.92-2.96,1.72-3.97.8-1.01,1.95-1.78,3.46-2.33,1.51-.54,3.25-.82,5.24-.82s3.57.23,4.81.7c1.23.46,2.14,1.05,2.72,1.75s.99,1.59,1.22,2.66c.13.67.2,1.87.2,3.61v5.22c0,3.64.08,5.94.25,6.91.17.96.5,1.89.99,2.77h-4.09c-.41-.81-.67-1.76-.78-2.85ZM521.83,176.16c-1.42.58-3.55,1.07-6.39,1.48-1.61.23-2.75.49-3.41.78-.67.29-1.18.71-1.54,1.27-.36.56-.54,1.18-.54,1.86,0,1.04.4,1.91,1.19,2.61.79.7,1.95,1.04,3.47,1.04s2.85-.33,4.02-.99c1.17-.66,2.04-1.56,2.59-2.71.42-.88.63-2.19.63-3.91v-1.44Z"/>
          <path d="M552.78,184.25l.57,3.46c-1.1.23-2.09.35-2.96.35-1.42,0-2.52-.23-3.31-.67-.78-.45-1.33-1.04-1.65-1.77-.32-.73-.48-2.27-.48-4.62v-13.29h-2.87v-3.04h2.87v-5.72l3.89-2.35v8.07h3.94v3.04h-3.94v13.51c0,1.12.07,1.83.21,2.15.14.32.36.57.67.76.31.19.76.28,1.34.28.44,0,1.01-.05,1.72-.15Z"/>
          <path d="M571.74,187.75v-3.39c-1.8,2.61-4.24,3.91-7.33,3.91-1.36,0-2.64-.26-3.82-.78-1.18-.52-2.06-1.18-2.63-1.97-.57-.79-.98-1.76-1.21-2.9-.16-.77-.24-1.99-.24-3.65v-14.31h3.91v12.81c0,2.04.08,3.42.24,4.13.25,1.03.77,1.84,1.57,2.43.8.59,1.78.88,2.96.88s2.28-.3,3.31-.9c1.03-.6,1.76-1.42,2.19-2.46.43-1.04.64-2.54.64-4.51v-12.38h3.92v23.1h-3.5Z"/>
          <path d="M592.18,180.86l3.87-.61c.22,1.55.82,2.74,1.82,3.57.99.83,2.38,1.24,4.16,1.24s3.13-.37,4-1.1c.87-.73,1.3-1.59,1.3-2.58,0-.88-.38-1.58-1.15-2.09-.54-.35-1.87-.79-4-1.33-2.87-.72-4.86-1.35-5.97-1.88-1.11-.53-1.95-1.26-2.52-2.2-.57-.94-.86-1.97-.86-3.1,0-1.03.24-1.98.71-2.86.47-.88,1.11-1.61,1.92-2.19.61-.45,1.44-.83,2.49-1.14,1.05-.31,2.18-.47,3.38-.47,1.81,0,3.4.26,4.77.78,1.37.52,2.38,1.23,3.03,2.12s1.1,2.08,1.35,3.58l-3.83.52c-.17-1.19-.68-2.12-1.51-2.78-.83-.67-2.01-1-3.53-1-1.8,0-3.08.3-3.85.89-.77.59-1.15,1.29-1.15,2.09,0,.51.16.96.48,1.37.32.42.82.77,1.5,1.04.39.15,1.54.48,3.46,1,2.77.74,4.7,1.34,5.8,1.82,1.09.47,1.95,1.16,2.58,2.06.62.9.94,2.02.94,3.35s-.38,2.53-1.14,3.69c-.76,1.15-1.86,2.04-3.29,2.68s-3.06.95-4.87.95c-3,0-5.29-.62-6.86-1.87s-2.58-3.1-3.01-5.55Z"/>
          <path d="M631.83,180.31l4.05.5c-.64,2.36-1.82,4.2-3.54,5.5-1.73,1.3-3.93,1.96-6.61,1.96-3.38,0-6.06-1.04-8.04-3.12-1.98-2.08-2.97-5-2.97-8.75s1-6.9,3-9.05c2-2.15,4.6-3.22,7.79-3.22s5.61,1.05,7.57,3.15c1.96,2.1,2.94,5.06,2.94,8.87,0,.23,0,.58-.02,1.04h-17.23c.15,2.54.86,4.48,2.15,5.83,1.29,1.35,2.9,2.02,4.83,2.02,1.44,0,2.66-.38,3.68-1.13,1.01-.75,1.82-1.96,2.41-3.61ZM618.98,173.99h12.9c-.17-1.94-.67-3.4-1.48-4.37-1.25-1.51-2.86-2.26-4.85-2.26-1.8,0-3.31.6-4.53,1.81-1.23,1.2-1.9,2.81-2.03,4.83Z"/>
          <path d="M640.75,187.75v-23.1h3.52v3.5c.9-1.64,1.73-2.72,2.49-3.24.76-.52,1.6-.78,2.51-.78,1.32,0,2.66.42,4.02,1.26l-1.35,3.63c-.96-.57-1.91-.85-2.87-.85-.86,0-1.62.26-2.31.77-.68.51-1.17,1.23-1.46,2.14-.44,1.39-.65,2.91-.65,4.57v12.09h-3.91Z"/>
          <path d="M662.04,187.75l-8.79-23.1h4.13l4.96,13.83c.54,1.49,1.03,3.04,1.48,4.65.35-1.22.83-2.68,1.46-4.39l5.13-14.09h4.02l-8.74,23.1h-3.65Z"/>
          <path d="M677.92,160.37v-4.5h3.91v4.5h-3.91ZM677.92,187.75v-23.1h3.91v23.1h-3.91Z"/>
          <path d="M702.86,179.29l3.85.5c-.42,2.65-1.5,4.73-3.23,6.23-1.73,1.5-3.86,2.25-6.38,2.25-3.16,0-5.7-1.03-7.62-3.1-1.92-2.07-2.88-5.03-2.88-8.88,0-2.49.41-4.68,1.24-6.55.83-1.87,2.08-3.27,3.77-4.21,1.69-.94,3.53-1.4,5.51-1.4,2.51,0,4.56.63,6.15,1.9s2.62,3.07,3.07,5.4l-3.81.59c-.36-1.55-1-2.72-1.92-3.5-.92-.78-2.03-1.17-3.34-1.17-1.97,0-3.57.71-4.81,2.12-1.23,1.41-1.85,3.65-1.85,6.71s.59,5.36,1.78,6.76c1.19,1.41,2.74,2.11,4.65,2.11,1.54,0,2.82-.47,3.85-1.41s1.68-2.39,1.96-4.35Z"/>
          <path d="M710.08,160.37v-4.5h3.91v4.5h-3.91ZM710.08,187.75v-23.1h3.91v23.1h-3.91Z"/>
          <path d="M718.5,176.2c0-4.28,1.19-7.45,3.57-9.5,1.99-1.71,4.41-2.57,7.26-2.57,3.18,0,5.77,1.04,7.79,3.12,2.02,2.08,3.02,4.96,3.02,8.62,0,2.97-.45,5.31-1.34,7.01-.89,1.7-2.19,3.03-3.89,3.97s-3.56,1.41-5.58,1.41c-3.23,0-5.85-1.04-7.84-3.11s-2.99-5.06-2.99-8.96ZM722.52,176.2c0,2.96.65,5.17,1.94,6.64s2.91,2.21,4.87,2.21,3.56-.74,4.85-2.22c1.29-1.48,1.94-3.73,1.94-6.76,0-2.86-.65-5.02-1.95-6.49-1.3-1.47-2.91-2.21-4.84-2.21s-3.58.73-4.87,2.2-1.94,3.68-1.94,6.63Z"/>
        </g>
      </g>
    </g>
  </g>
</svg>